<svg xmlns="http://www.w3.org/2000/svg" viewBox="0 0 957.74 742.66">
  <defs>
    <style>
      .cls-1 {
        fill: #231f20;
        opacity: 0.5;
      }

      .cls-2 {
        fill: #fff;
      }
    </style>
  </defs>
  <title>Text Select Video</title>
  <g id="Layer_2" data-name="Layer 2">
    <g id="Layer_2-2" data-name="Layer 2">
      <g id="Text_Select_Video" data-name="Text Select Video">
        <rect class="cls-1" width="957.74" height="742.66"/>
        <path class="cls-2" d="M465.18,569.59l-163.44-301a15.57,15.57,0,0,1,13.69-23H642.31a15.57,15.57,0,0,1,13.69,23l-163.44,301A15.58,15.58,0,0,1,465.18,569.59Zm-126-287.74L473.06,528.49a6.61,6.61,0,0,0,11.62,0L618.6,281.85a6.61,6.61,0,0,0-5.81-9.77H345A6.61,6.61,0,0,0,339.14,281.85Z"/>
        <g>
          <path class="cls-2" d="M892.09,371.33c0,162.91-94.77,304.08-232.07,371.33h54.17C837,664.57,918.62,527.31,918.62,371.33S837,78.09,714.19,0H660C797.32,67.25,892.09,208.42,892.09,371.33Z"/>
          <path class="cls-2" d="M243.55,742.66h54.17C160.42,675.41,65.65,534.24,65.65,371.33S160.42,67.25,297.72,0H243.55C120.76,78.09,39.12,215.35,39.12,371.33S120.76,664.57,243.55,742.66Z"/>
        </g>
      </g>
    </g>
  </g>
</svg>
